<svg viewBox="0 0 24 24" fill="none" xmlns="http://www.w3.org/2000/svg"><g id="SVGRepo_bgCarrier" stroke-width="0"></g><g id="SVGRepo_tracerCarrier" stroke-linecap="round" stroke-linejoin="round"></g><g id="SVGRepo_iconCarrier"><path d="M16 5L18.2929 2.70711C18.6834 2.31658 19.3166 2.31658 19.7071 2.70711L21.2929 4.29289C21.6834 4.68342 21.6834 5.31658 21.2929 5.70711L19 8M16 5L10.2929 10.7071C10.1054 10.8946 10 11.149 10 11.4142V13C10 13.5523 10.4477 14 11 14H12.5858C12.851 14 13.1054 13.8946 13.2929 13.7071L19 8M16 5L19 8" stroke="#e78fde" stroke-linecap="round" stroke-linejoin="round" stroke-width="2"></path><path d="M6 14H5C3.89543 14 3 14.8954 3 16V16C3 17.1046 3.89543 18 5 18H19C20.1046 18 21 18.8954 21 20V20C21 21.1046 20.1046 22 19 22H15" stroke="#e78fde" stroke-linecap="round" stroke-linejoin="round" stroke-width="2"></path></g></svg>